<?xml version="1.0" encoding="UTF-8"?><svg id="Layer_5" xmlns="http://www.w3.org/2000/svg" xmlns:xlink="http://www.w3.org/1999/xlink" viewBox="0 0 1743 1160"><defs><style>.cls-1{fill:#26cd3f;}.cls-2{fill:url(#linear-gradient-2);}.cls-3{fill:#0075f6;opacity:.2;}.cls-4{fill:#56a8ff;}.cls-5{fill:#fff;}.cls-6{fill:#27295c;}.cls-7{fill:#417ebf;}.cls-8{fill:#ffbf31;}.cls-9{fill:#1d1931;}.cls-10{fill:#769fcd;}.cls-11{fill:#332c57;}.cls-12{fill:#969e9f;}.cls-13{fill:#f7f7fe;}.cls-13,.cls-14,.cls-15{opacity:.99;}.cls-16{fill:#70777d;}.cls-17{fill:#ffd3c4;}.cls-18{fill:#ffab64;}.cls-19{fill:url(#linear-gradient-6);}.cls-20{fill:#e9ecf0;}.cls-21{fill:#e99e17;}.cls-22{fill:#59779a;}.cls-23{fill:#d6e6f2;}.cls-24{fill:#788997;}.cls-25{fill:#ff5e57;}.cls-26{fill:url(#linear-gradient-11);}.cls-27{fill:#a8b2bb;}.cls-28{fill:#625a75;}.cls-29{fill:#b9d7ea;}.cls-30{fill:url(#linear-gradient-10);}.cls-31,.cls-32{opacity:.3;}.cls-31,.cls-33{fill:#51a4ff;}.cls-34{fill:#0f2a47;}.cls-35,.cls-15{fill:#2f5683;}.cls-36{fill:#5aacff;}.cls-37{fill:#adc5e1;}.cls-38{fill:#e3e4e6;}.cls-39{fill:#c8e6ff;}.cls-40{fill:#fdfffe;}.cls-41{fill:url(#linear-gradient-5);}.cls-42{fill:#f7fbfc;}.cls-43{fill:#453e5b;}.cls-44{fill:#91b2d7;}.cls-14{fill:#3f72af;}.cls-45{fill:#3b5067;}.cls-46{fill:url(#linear-gradient-7);}.cls-47{fill:#f5d157;}.cls-48{fill:#ec714e;}.cls-49{fill:url(#linear-gradient-9);}.cls-50{fill:#bc8877;}.cls-51{fill:#78b9ff;}.cls-52{fill:url(#linear-gradient-3);}.cls-53{fill:#4d3644;}.cls-54{fill:#e4b537;}.cls-55{fill:url(#linear-gradient);}.cls-56{fill:#342f44;}.cls-57{fill:#f3f7f8;}.cls-58{fill:#a7c1df;}.cls-59{fill:url(#linear-gradient-4);}.cls-60{fill:#8c9695;}.cls-61{fill:#232625;}.cls-62{fill:url(#linear-gradient-8);}.cls-63{fill:#fcfdfe;}.cls-64{fill:#d0dcdb;}.cls-65{fill:#b9c3ce;}.cls-66{fill:#fefefe;}.cls-67{fill:url(#linear-gradient-12);}.cls-68{fill:url(#linear-gradient-13);}</style><linearGradient id="linear-gradient" x1="1064.4" y1="306.36" x2="578.11" y2="-9.66" gradientUnits="userSpaceOnUse"><stop offset="0" stop-color="#80d4ff"/><stop offset="1" stop-color="#188dfe"/></linearGradient><linearGradient id="linear-gradient-2" x1="748.84" y1="527.47" x2="522.37" y2="314.17" xlink:href="#linear-gradient"/><linearGradient id="linear-gradient-3" x1="1319.39" y1="170.71" x2="1174.51" y2="49.19" xlink:href="#linear-gradient"/><linearGradient id="linear-gradient-4" x1="1352.78" y1="201.27" x2="1154.79" y2="35.22" xlink:href="#linear-gradient"/><linearGradient id="linear-gradient-5" x1="1493.25" y1="392.81" x2="1365.29" y2="276.08" xlink:href="#linear-gradient"/><linearGradient id="linear-gradient-6" x1="1509.75" y1="432.43" x2="1336.81" y2="274.69" xlink:href="#linear-gradient"/><linearGradient id="linear-gradient-7" x1="-6415.92" y1="2098.76" x2="-6395.34" y2="2042.05" gradientTransform="translate(7614.85 -479.95) rotate(11.51)" gradientUnits="userSpaceOnUse"><stop offset="0" stop-color="#fbb59e"/><stop offset="1" stop-color="#ffebd1"/></linearGradient><linearGradient id="linear-gradient-8" x1="-7577.18" y1="1602.32" x2="-7558.33" y2="1668.47" gradientTransform="translate(8783.99 -611.91) rotate(5.7)" xlink:href="#linear-gradient-7"/><linearGradient id="linear-gradient-9" x1="-7551" y1="1562.58" x2="-7645.42" y2="1604" gradientTransform="translate(8783.99 -611.91) rotate(5.7)" xlink:href="#linear-gradient-7"/><linearGradient id="linear-gradient-10" x1="433.45" y1="492.55" x2="441.89" y2="572.92" gradientTransform="matrix(1, 0, 0, 1, 0, 0)" xlink:href="#linear-gradient-7"/><linearGradient id="linear-gradient-11" x1="6589.29" y1="1355.89" x2="6485.66" y2="1401.34" gradientTransform="translate(6630.06 -2084.01) rotate(169.34) scale(1 -1)" xlink:href="#linear-gradient-7"/><linearGradient id="linear-gradient-12" x1="533.57" y1="694.43" x2="676.46" y2="512.57" gradientTransform="matrix(1, 0, 0, 1, 0, 0)" xlink:href="#linear-gradient-7"/><linearGradient id="linear-gradient-13" x1="555.98" y1="557.53" x2="773.27" y2="474.27" gradientTransform="translate(-287.7 132) rotate(2.62)" xlink:href="#linear-gradient-7"/></defs><ellipse class="cls-3" cx="871.5" cy="1143.5" rx="871.5" ry="16.5"/><path class="cls-3" d="M566,1079.24c0,.97-41.68,1.76-93.08,1.76s-93.08-.79-93.08-1.76,41.68-1.76,93.08-1.76,93.08,.79,93.08,1.76Z"/><g><path class="cls-31" d="M347.22,381.11l-134.36-.05c-3.71,0-6.74-3.04-6.74-6.75l.02-60.71c0-3.71,3.04-6.74,6.75-6.74l134.36,.05c3.71,0,6.74,3.04,6.74,6.75l-.02,60.71c0,3.71-3.04,6.74-6.75,6.74Z"/><path class="cls-31" d="M286.48,440.11l-134.36-.05c-3.71,0-6.74-3.04-6.74-6.75l.02-60.71c0-3.71,3.04-6.74,6.75-6.74l134.36,.05c3.71,0,6.74,3.04,6.74,6.75l-.02,60.71c0,3.71-3.04,6.74-6.75,6.74Z"/></g><g class="cls-32"><path class="cls-33" d="M471,100c-27.57,0-50-22.43-50-50S443.43,0,471,0s50,22.43,50,50-22.43,50-50,50Zm0-77.78c-15.32,0-27.78,12.46-27.78,27.78s12.46,27.78,27.78,27.78,27.78-12.46,27.78-27.78-12.46-27.78-27.78-27.78Z"/></g><rect class="cls-31" x="1537" y="303.78" width="147.01" height="73.56" rx="6.7" ry="6.7" transform="translate(1951.07 -1269.94) rotate(90)"/><g><g><path class="cls-48" d="M1286.65,964.73s14.23,39.96,20.47,64.3l5.59,.34s-14.62-60.49-23.62-66.96l-2.43,2.31Z"/><path class="cls-18" d="M1277.36,974.84c16.87,6.72,27.23,20.5,23.13,30.79-4.1,10.29-21.1,13.18-37.97,6.46-16.87-6.72-27.23-20.5-23.13-30.79,4.1-10.29,21.1-13.18,37.97-6.46Z"/><path class="cls-48" d="M1306.48,916.18s7.31,88.09-.19,113.86l7.32-.76s7.55-105.37-4.49-114.3l-2.65,1.2Z"/><polygon class="cls-48" points="1311.73 993.38 1325.4 973.44 1327.7 977.83 1312.21 997.95 1311.73 993.38"/><path class="cls-48" d="M1312.59,1001.62s8.49-7.36,13.16-6.92l-.34,5.59s-11.71,3.07-12.44,5c-.72,1.93-.38-3.66-.38-3.66Z"/><path class="cls-18" d="M1287.31,932.57c11.45,11.65,14.97,26.76,7.86,33.74-7.11,6.98-22.15,3.19-33.6-8.46-11.45-11.65-14.97-26.76-7.86-33.74,7.11-6.98,22.15-3.19,33.6,8.46Z"/><path class="cls-18" d="M1306.1,884.91c10.07,14.81,10.92,31.79,1.89,37.93-9.03,6.14-24.51-.88-34.58-15.69-10.07-14.81-10.92-31.79-1.89-37.93,9.03-6.14,24.51,.88,34.58,15.69Z"/><path class="cls-18" d="M1336.23,898.84c17.93-9.47,37.15-8.28,42.92,2.66,5.77,10.94-4.09,27.47-22.02,36.94-17.93,9.47-37.15,8.28-42.92-2.66-5.77-10.94,4.09-27.47,22.02-36.94Z"/><path class="cls-18" d="M1338.34,947.96c13.97-7.83,29.17-7.28,33.94,1.24,4.78,8.52-2.68,21.77-16.65,29.6-13.97,7.83-29.17,7.28-33.94-1.24-4.78-8.52,2.68-21.77,16.65-29.6Z"/><path class="cls-18" d="M1345.99,985.84c14.4,.82,25.68,8.6,25.18,17.38-.5,8.78-12.58,15.24-26.98,14.42-14.4-.82-25.68-8.6-25.18-17.38,.5-8.78,12.58-15.24,26.98-14.42Z"/><path class="cls-48" d="M1307.24,923.5s-16.95-36.99-30.23-44.45c0,0,26,12.1,34.52,41.23l-4.29,3.22Z"/><path class="cls-48" d="M1313.79,937.61s32.48-24.65,47.72-24.79c0,0-28.86-1.88-50.38,19.53l2.66,5.26Z"/><path class="cls-48" d="M1324.42,981.88s23.57-24.66,36.04-26.9c0,0-23.51,3.78-38.16,24.34l2.12,2.56Z"/><path class="cls-48" d="M1318.2,1001.45s33.44-6.76,44.95-1.47c0,0-21.45-10.34-45.23-1.84l.28,3.31Z"/><path class="cls-48" d="M1300.72,1006.09s-30.35-15.57-42.87-13.6c0,0,23.45-4.13,44.03,10.49l-1.16,3.11Z"/><path class="cls-48" d="M1288.73,970.78s-12.64-31.54-23.48-38.11c0,0,21.71,11.77,28.02,36.21l-4.54,1.89Z"/></g><g><path class="cls-57" d="M1257.41,1136.87h95.68c16.86-13.12,21.39-80.16,22.48-103.56,.2-4.4-3.33-8.06-7.72-8.06h-117.59c-3.83,0-7.13,2.78-7.63,6.56-5.81,43.28,14.79,105.06,14.79,105.06Z"/><path class="cls-23" d="M1257.41,1136.87h23.28c-17.18-46.08-10.98-92.49-7.15-111.62h-23.28c-3.83,0-7.13,2.78-7.63,6.56-5.81,43.28,14.79,105.06,14.79,105.06Z"/></g></g><g><rect class="cls-44" x="1356" y="648.6" width="237.98" height="499.5" transform="translate(2949.98 1796.7) rotate(180)"/><rect class="cls-10" x="1593.98" y="648.6" width="99.38" height="499.5" transform="translate(3287.33 1796.7) rotate(180)"/><rect class="cls-23" x="1371.69" y="666.91" width="201.37" height="141.22" transform="translate(2944.75 1475.03) rotate(180)"/><path class="cls-10" d="M1429.22,742.75h78.45c4.33,0,7.85-3.51,7.85-7.85h0c0-4.33-3.51-7.85-7.85-7.85h-78.45c-4.33,0-7.85,3.51-7.85,7.85h0c0,4.33,3.51,7.85,7.85,7.85Z"/><rect class="cls-23" x="1371.69" y="831.66" width="201.37" height="141.22" transform="translate(2944.75 1804.54) rotate(180)"/><path class="cls-10" d="M1429.22,891.81h78.45c4.33,0,7.85,3.52,7.85,7.85h0c0,4.33-3.52,7.85-7.85,7.85h-78.45c-4.33,0-7.85-3.52-7.85-7.85h0c0-4.33,3.52-7.85,7.85-7.85Z" transform="translate(2936.9 1799.31) rotate(180)"/><rect class="cls-23" x="1371.69" y="988.57" width="201.37" height="141.22" transform="translate(2944.75 2118.36) rotate(180)"/><path class="cls-10" d="M1429.22,1064.41h78.45c4.33,0,7.85-3.51,7.85-7.85h0c0-4.33-3.51-7.85-7.85-7.85h-78.45c-4.33,0-7.85,3.51-7.85,7.85h0c0,4.33,3.51,7.85,7.85,7.85Z"/></g><g><rect class="cls-10" x="1444.42" y="580.25" width="25.17" height="65.47"/><polygon class="cls-44" points="1409.31 593.35 1505.36 593.35 1492.92 537.81 1420.44 537 1409.31 593.35"/><rect class="cls-22" x="1423.84" y="645.72" width="66.56" height="3.27"/><path class="cls-58" d="M1492.92,537s-9.66,43.49-83.76,56.38h95.84l-12.08-56.38Z"/></g><g><path class="cls-10" d="M1527.95,648.78h0c-1.44-.65-2.09-2.34-1.44-3.79l3.98-8.89c.65-1.44,2.34-2.09,3.79-1.44h0c1.44,.65,2.09,2.34,1.44,3.79l-3.98,8.89c-.65,1.44-2.34,2.09-3.79,1.44Z"/><path class="cls-10" d="M1560.47,648.78h0c1.44-.65,2.09-2.34,1.44-3.79l-3.98-8.89c-.65-1.44-2.34-2.09-3.79-1.44h0c-1.44,.65-2.09,2.34-1.44,3.79l3.98,8.89c.65,1.44,2.34,2.09,3.79,1.44Z"/><g><g><circle class="cls-5" cx="1544.82" cy="612.9" r="27.2" transform="translate(19.08 1271.87) rotate(-45)"/><path class="cls-44" d="M1544.82,641.35c-15.69,0-28.45-12.76-28.45-28.45s12.76-28.45,28.45-28.45,28.45,12.76,28.45,28.45-12.76,28.45-28.45,28.45Zm0-54.39c-14.3,0-25.94,11.64-25.94,25.94s11.64,25.94,25.94,25.94,25.94-11.64,25.94-25.94-11.64-25.94-25.94-25.94Z"/></g><path class="cls-37" d="M1544.82,594.07h0c-.69,0-1.26-.56-1.26-1.26v-3.35c0-.69,.56-1.25,1.26-1.25h0c.69,0,1.26,.56,1.26,1.25v3.35c0,.69-.56,1.26-1.26,1.26Z"/><path class="cls-37" d="M1544.82,637.58h0c-.69,0-1.26-.56-1.26-1.26v-3.35c0-.69,.56-1.26,1.26-1.26h0c.69,0,1.26,.56,1.26,1.26v3.35c0,.69-.56,1.26-1.26,1.26Z"/><path class="cls-37" d="M1563.65,612.9h0c0-.69,.56-1.26,1.26-1.26h3.35c.69,0,1.26,.56,1.26,1.26h0c0,.69-.56,1.26-1.26,1.26h-3.35c-.69,0-1.26-.56-1.26-1.26Z"/><path class="cls-37" d="M1520.14,612.9h0c0-.69,.56-1.26,1.26-1.26h3.35c.69,0,1.26,.56,1.26,1.26h0c0,.69-.56,1.26-1.26,1.26h-3.35c-.69,0-1.26-.56-1.26-1.26Z"/><g><path class="cls-22" d="M1541.05,618.24l10.37-15.76c.1-.15,.33-.02,.25,.14l-8.42,17.09c-.29,.58-.88,.96-1.53,.96h-.3c-.36,0-.65-.28-.65-.64v-.84c0-.34,.09-.67,.28-.96Z"/><path class="cls-44" d="M1526.6,602.69l23.8,15.66c.25,.16,.57,.18,.84,.05l.85-.43c.44-.23,.72-.68,.72-1.18v-.71c0-.3-.17-.58-.44-.73l-24.77-13.67h-1s0,1.01,0,1.01Z"/><path class="cls-44" d="M1548.77,613.1c.01,1.94-1.55,3.53-3.49,3.54-1.94,.01-3.53-1.55-3.54-3.49-.01-1.94,1.55-3.53,3.49-3.54,1.94-.01,3.53,1.55,3.54,3.49Z"/></g></g></g><g><rect class="cls-55" x="654.33" y="14" width="385.08" height="302" rx="23.55" ry="23.55"/><rect class="cls-40" x="675.67" y="74.62" width="341.29" height="223.41" rx="14.26" ry="14.26"/><circle class="cls-25" cx="690.26" cy="46.56" r="7.86" transform="translate(486.36 707.66) rotate(-76.72)"/><circle class="cls-8" cx="711.59" cy="46.56" r="7.86" transform="translate(175.5 516.81) rotate(-45)"/><circle class="cls-1" cx="732.92" cy="46.56" r="7.86" transform="translate(519.22 749.18) rotate(-76.72)"/><path class="cls-40" d="M1006.85,49.93h-71.85c-3.1,0-5.61-2.51-5.61-5.61h0c0-3.1,2.51-5.61,5.61-5.61h71.85c3.1,0,5.61,2.51,5.61,5.61h0c0,3.1-2.51,5.61-5.61,5.61Z"/><rect class="cls-36" x="693.63" y="92.59" width="140.33" height="41.54" rx="6.88" ry="6.88"/><path class="cls-36" d="M857.74,92.59h119.73c5.69,0,10.3,4.62,10.3,10.3v72.58c0,5.69-4.62,10.3-10.3,10.3h-119.73c-5.69,0-10.3-4.62-10.3-10.3V102.89c0-5.69,4.62-10.3,10.3-10.3Z"/><rect class="cls-36" x="847.43" y="191.38" width="140.33" height="93.18" rx="10.3" ry="10.3"/><rect class="cls-36" x="693.63" y="144.23" width="140.33" height="41.54" rx="6.88" ry="6.88"/><rect class="cls-36" x="693.63" y="195.87" width="140.33" height="41.54" rx="6.88" ry="6.88"/><rect class="cls-36" x="693.63" y="247.52" width="140.33" height="41.54" rx="6.88" ry="6.88"/></g><g><rect class="cls-2" x="578" y="362" width="157" height="157" rx="17.49" ry="17.49"/><g><path class="cls-5" d="M709.89,373.51c0,1.29-1.05,2.34-2.34,2.34s-2.34-1.05-2.34-2.34,1.05-2.34,2.34-2.34,2.34,1.05,2.34,2.34Z"/><circle class="cls-5" cx="707.55" cy="381.33" r="2.34"/><path class="cls-5" d="M716.14,373.51c0,1.29-1.05,2.34-2.34,2.34s-2.34-1.05-2.34-2.34,1.05-2.34,2.34-2.34,2.34,1.05,2.34,2.34Z"/><path class="cls-5" d="M716.14,381.33c0,1.29-1.05,2.34-2.34,2.34s-2.34-1.05-2.34-2.34,1.05-2.34,2.34-2.34,2.34,1.05,2.34,2.34Z"/><path class="cls-5" d="M722.39,373.51c0,1.29-1.05,2.34-2.34,2.34s-2.34-1.05-2.34-2.34,1.05-2.34,2.34-2.34,2.34,1.05,2.34,2.34Z"/><path class="cls-5" d="M722.39,381.33c0,1.29-1.05,2.34-2.34,2.34s-2.34-1.05-2.34-2.34,1.05-2.34,2.34-2.34,2.34,1.05,2.34,2.34Z"/></g><path class="cls-39" d="M585.45,477.74c-2.56,0-5.04,.26-7.45,.78v16.71c2.3-.94,4.81-1.44,7.45-1.44,11.06,0,20.05,9,20.05,20.05,0,1.78-.23,3.51-.68,5.16h16.35c.24-1.68,.37-3.4,.37-5.16,0-19.91-16.19-36.1-36.1-36.1Z"/><g><path class="cls-40" d="M591.89,438.08l38.47-19.82v5.72l-32.42,16.25v.16l32.42,16.26v5.72l-38.47-19.81v-4.48Z"/><path class="cls-40" d="M720.28,442.64l-38.47,19.73v-5.72l32.66-16.26v-.16l-32.66-16.25v-5.72l38.47,19.73v4.64Z"/></g></g><g><g><path class="cls-52" d="M1302.25,181.9h-110.6c-9.18,0-16.65-7.47-16.65-16.65V54.65c0-9.18,7.47-16.65,16.65-16.65h110.6c9.18,0,16.65,7.47,16.65,16.65v110.6c0,9.18-7.47,16.65-16.65,16.65Zm-110.6-142.31c-8.3,0-15.06,6.75-15.06,15.06v110.6c0,8.3,6.75,15.06,15.06,15.06h110.6c8.3,0,15.06-6.75,15.06-15.06V54.65c0-8.3-6.75-15.06-15.06-15.06h-110.6Z"/><rect class="cls-59" x="1191.69" y="54.69" width="142.31" height="142.31" rx="15.85" ry="15.85"/><g><path class="cls-5" d="M1214.45,186.57c0-1.17,.95-2.12,2.12-2.12s2.12,.95,2.12,2.12-.95,2.12-2.12,2.12-2.12-.95-2.12-2.12Z"/><path class="cls-5" d="M1214.45,179.48c0-1.17,.95-2.12,2.12-2.12s2.12,.95,2.12,2.12-.95,2.12-2.12,2.12-2.12-.95-2.12-2.12Z"/><path class="cls-5" d="M1208.79,186.57c0-1.17,.95-2.12,2.12-2.12s2.12,.95,2.12,2.12-.95,2.12-2.12,2.12-2.12-.95-2.12-2.12Z"/><path class="cls-5" d="M1208.79,179.48c0-1.17,.95-2.12,2.12-2.12s2.12,.95,2.12,2.12-.95,2.12-2.12,2.12-2.12-.95-2.12-2.12Z"/><path class="cls-5" d="M1203.12,186.57c0-1.17,.95-2.12,2.12-2.12s2.12,.95,2.12,2.12-.95,2.12-2.12,2.12-2.12-.95-2.12-2.12Z"/><path class="cls-5" d="M1203.12,179.48c0-1.17,.95-2.12,2.12-2.12s2.12,.95,2.12,2.12-.95,2.12-2.12,2.12-2.12-.95-2.12-2.12Z"/></g><path class="cls-39" d="M1327.25,92.09c2.32,0,4.57-.24,6.75-.71v-15.14c-2.09,.85-4.36,1.31-6.75,1.31-10.02,0-18.18-8.15-18.18-18.18,0-1.61,.21-3.18,.61-4.67h-14.82c-.22,1.53-.33,3.09-.33,4.67,0,18.04,14.68,32.72,32.72,32.72Z"/></g><g><path class="cls-40" d="M1211.32,114.01v8.69h13.26v-8.69c0-1.24,.28-2.17,.84-2.79,.56-.62,1.29-.93,2.2-.93s1.67,.31,2.24,.92c.57,.61,.86,1.55,.86,2.8v23.9c0,1.25-.29,2.19-.87,2.81-.58,.62-1.32,.93-2.23,.93s-1.66-.31-2.21-.94c-.55-.63-.83-1.56-.83-2.8v-10.2h-13.26v10.2c0,1.25-.29,2.19-.87,2.81-.58,.62-1.32,.93-2.23,.93s-1.66-.31-2.21-.94c-.55-.63-.83-1.56-.83-2.8v-23.9c0-1.24,.27-2.17,.82-2.79,.54-.62,1.29-.93,2.22-.93s1.67,.31,2.24,.92c.57,.61,.86,1.55,.86,2.8Z"/><path class="cls-40" d="M1257.02,115.87h-6.7v22.03c0,1.27-.28,2.21-.85,2.82-.57,.61-1.3,.92-2.19,.92s-1.65-.31-2.22-.93c-.57-.62-.86-1.56-.86-2.81v-22.03h-6.7c-1.05,0-1.83-.23-2.34-.69-.51-.46-.77-1.07-.77-1.83s.27-1.41,.8-1.86c.53-.46,1.3-.68,2.31-.68h19.53c1.06,0,1.85,.23,2.37,.7,.52,.47,.78,1.08,.78,1.84s-.26,1.37-.79,1.83c-.52,.46-1.31,.69-2.36,.69Z"/><path class="cls-40" d="M1274.05,136.56l-4.86-19.32v20.94c0,1.16-.26,2.03-.78,2.61-.52,.58-1.2,.87-2.06,.87s-1.5-.29-2.03-.86c-.52-.57-.79-1.45-.79-2.62v-24c0-1.32,.34-2.22,1.03-2.68,.69-.46,1.62-.69,2.79-.69h1.9c1.14,0,1.98,.1,2.49,.31,.52,.21,.9,.58,1.15,1.12,.25,.54,.53,1.41,.85,2.63l4.41,16.61,4.41-16.61c.32-1.21,.6-2.09,.85-2.63,.25-.54,.63-.91,1.15-1.12,.52-.21,1.35-.31,2.49-.31h1.9c1.17,0,2.1,.23,2.79,.69,.69,.46,1.03,1.36,1.03,2.68v24c0,1.16-.26,2.03-.78,2.61-.52,.58-1.21,.87-2.08,.87-.81,0-1.48-.29-2.01-.87-.52-.58-.79-1.45-.79-2.61v-20.94l-4.86,19.32c-.32,1.26-.58,2.18-.78,2.76-.2,.59-.57,1.12-1.11,1.6-.54,.48-1.28,.72-2.23,.72-.72,0-1.32-.16-1.82-.47-.5-.31-.88-.71-1.16-1.19-.28-.48-.49-1.02-.65-1.6-.16-.59-.32-1.2-.49-1.83Z"/><path class="cls-40" d="M1305.12,114.01v22.07h12.46c.99,0,1.75,.24,2.29,.72s.8,1.09,.8,1.82-.26,1.35-.79,1.81c-.52,.46-1.29,.69-2.3,.69h-14.83c-1.34,0-2.3-.3-2.89-.89-.59-.59-.88-1.55-.88-2.88v-23.36c0-1.24,.28-2.17,.84-2.79,.56-.62,1.29-.93,2.2-.93s1.67,.31,2.24,.92c.57,.61,.86,1.55,.86,2.8Z"/></g></g><g><g><path class="cls-41" d="M1479.86,400.17h-101.18c-8.35,0-15.14-6.79-15.14-15.14v-101.18c0-8.35,6.79-15.14,15.14-15.14h101.18c8.35,0,15.14,6.79,15.14,15.14v101.18c0,8.35-6.79,15.14-15.14,15.14Zm-101.18-130.17c-7.64,0-13.86,6.22-13.86,13.86v101.18c0,7.64,6.22,13.86,13.86,13.86h101.18c7.64,0,13.86-6.22,13.86-13.86v-101.18c0-7.64-6.22-13.86-13.86-13.86h-101.18Z"/><rect class="cls-19" x="1352" y="282.83" width="130.17" height="130.17" rx="14.5" ry="14.5"/><g><path class="cls-5" d="M1372.82,292.37c0,1.07,.87,1.94,1.94,1.94s1.94-.87,1.94-1.94-.87-1.94-1.94-1.94-1.94,.87-1.94,1.94Z"/><path class="cls-5" d="M1372.82,298.85c0,1.07,.87,1.94,1.94,1.94s1.94-.87,1.94-1.94-.87-1.94-1.94-1.94-1.94,.87-1.94,1.94Z"/><path class="cls-5" d="M1367.63,292.37c0,1.07,.87,1.94,1.94,1.94s1.94-.87,1.94-1.94-.87-1.94-1.94-1.94-1.94,.87-1.94,1.94Z"/><path class="cls-5" d="M1367.63,298.85c0,1.07,.87,1.94,1.94,1.94s1.94-.87,1.94-1.94-.87-1.94-1.94-1.94-1.94,.87-1.94,1.94Z"/><path class="cls-5" d="M1362.45,292.37c0,1.07,.87,1.94,1.94,1.94s1.94-.87,1.94-1.94-.87-1.94-1.94-1.94-1.94,.87-1.94,1.94Z"/><path class="cls-5" d="M1362.45,298.85c0,1.07,.87,1.94,1.94,1.94s1.94-.87,1.94-1.94-.87-1.94-1.94-1.94-1.94,.87-1.94,1.94Z"/></g><path class="cls-39" d="M1476,378.79c2.12,0,4.18,.22,6.18,.65v13.85c-1.91-.78-3.99-1.2-6.18-1.2-9.17,0-16.63,7.46-16.63,16.63,0,1.47,.19,2.91,.56,4.28h-13.56c-.2-1.4-.3-2.82-.3-4.28,0-16.5,13.43-29.93,29.93-29.93Z"/></g><g><path class="cls-40" d="M1382.77,350.8h-6.72v10.25c0,1.46-.35,2.58-1.04,3.33-.69,.76-1.56,1.14-2.62,1.14s-1.99-.38-2.67-1.12c-.68-.75-1.01-1.85-1.01-3.3v-27.91c0-1.61,.37-2.77,1.11-3.46,.74-.69,1.92-1.04,3.53-1.04h9.41c2.78,0,4.92,.21,6.42,.64,1.48,.41,2.76,1.09,3.84,2.05,1.08,.95,1.9,2.12,2.46,3.51,.56,1.38,.84,2.94,.84,4.67,0,3.69-1.14,6.48-3.41,8.38-2.27,1.9-5.66,2.85-10.15,2.85Zm-1.78-16.6h-4.94v11.06h4.94c1.73,0,3.17-.18,4.33-.54,1.16-.36,2.05-.95,2.65-1.78,.61-.82,.91-1.9,.91-3.24,0-1.6-.47-2.9-1.41-3.9-1.05-1.07-3.22-1.6-6.5-1.6Z"/><path class="cls-40" d="M1409.84,332.52v10.37h15.83v-10.37c0-1.48,.33-2.59,1-3.33,.67-.74,1.54-1.11,2.63-1.11s2,.37,2.68,1.1c.68,.73,1.02,1.85,1.02,3.35v28.53c0,1.5-.35,2.62-1.04,3.36-.69,.74-1.58,1.11-2.67,1.11s-1.98-.38-2.64-1.12c-.66-.75-.99-1.86-.99-3.35v-12.18h-15.83v12.18c0,1.5-.35,2.62-1.04,3.36-.69,.74-1.58,1.11-2.67,1.11s-1.98-.38-2.64-1.12c-.66-.75-.99-1.86-.99-3.35v-28.53c0-1.48,.32-2.59,.98-3.33s1.53-1.11,2.65-1.11,2,.37,2.68,1.1c.68,.73,1.02,1.85,1.02,3.35Z"/><path class="cls-40" d="M1454.94,350.8h-6.72v10.25c0,1.46-.35,2.58-1.04,3.33-.69,.76-1.56,1.14-2.62,1.14s-1.99-.38-2.67-1.12c-.68-.75-1.01-1.85-1.01-3.3v-27.91c0-1.61,.37-2.77,1.11-3.46,.74-.69,1.92-1.04,3.53-1.04h9.41c2.78,0,4.92,.21,6.42,.64,1.48,.41,2.76,1.09,3.84,2.05,1.08,.95,1.9,2.12,2.46,3.51,.56,1.38,.84,2.94,.84,4.67,0,3.69-1.14,6.48-3.41,8.38-2.27,1.9-5.66,2.85-10.15,2.85Zm-1.78-16.6h-4.94v11.06h4.94c1.73,0,3.17-.18,4.33-.54,1.16-.36,2.05-.95,2.65-1.78,.61-.82,.91-1.9,.91-3.24,0-1.6-.47-2.9-1.41-3.9-1.05-1.07-3.22-1.6-6.5-1.6Z"/></g></g><g><g><polygon class="cls-17" points="1243.39 1081.63 1245.11 1119.36 1211.27 1119.36 1211.27 1080.25 1243.39 1081.63"/><polygon class="cls-17" points="1037.64 1078.79 1035.74 1116.57 1001.9 1116.57 1001.9 1077.46 1037.64 1078.79"/><path class="cls-11" d="M1174.5,527.04l77.19,557.8c.34,2.47-1.83,4.65-4.63,4.64l-36.7-.09c-2.12,0-3.96-1.28-4.49-3.1l-119.36-408.87-43.42,409.4c-.33,3.04-3.2,5.37-6.64,5.37h-31.15c-3.73,0-6.73-2.71-6.67-6.03l10.04-559.13h165.83Z"/><polygon class="cls-9" points="1069.58 596.22 1086.5 677.43 1071.02 821.38 1069.58 596.22"/><path class="cls-36" d="M1249.23,1105.39s17.85,16.71,34.77,19.71c16.92,3.01,33.84,3.01,37.23,18.05h-111.68v-39.1l39.69,1.34Z"/><path class="cls-36" d="M999.44,1105.87s-17.85,16.71-34.77,19.72c-16.92,3.01-33.84,3.01-37.23,18.05h111.68v-39.1l-39.69,1.34Z"/></g><path class="cls-13" d="M999.45,532.57l16.94-238.51s50.76-36.38,79.06-30.58c23.14,4.75,50.58,16.58,67.77,24.46,18.78,8.61,16.94,244.63,16.94,244.63h-180.72Z"/><path class="cls-46" d="M917.11,302.75s-21.69-70.09,1.83-57.76c11.79,6.18,17.73,29.81,17.73,29.81,0,0,4.29-17.22,8.73-8.88,4.43,8.33-11.1,35.59-11.1,35.59l-17.18,1.25Z"/><polygon class="cls-14" points="1061.59 268.94 1010.75 287.94 982.29 630.5 1059.35 630.5 1061.59 268.94"/><path class="cls-14" d="M1010.75,398.02l-40.02,81.26c-4.73,9.59-13.09,16.83-23,18.56-11.27,1.96-24.28-2.73-27.33-32.55-5.65-55.04-5.65-165.13-5.65-165.13h22.59l16.94,85.62s33.88-97.85,56.47-97.85v110.08Z"/><g><path class="cls-6" d="M1053.96,181.21s-26.61-8.06-21.46-34.16c5.14-26.1,30.6-12.98,35.2-11,4.6,1.98,24.71-1.03,28.91-2.05,4.2-1.03,18.68-2.42,21.94,14.22,3.25,16.64,3.25,53.66-13.67,59.24-16.92,5.57-50.91-26.24-50.91-26.24Z"/><path class="cls-62" d="M1105.58,210.86l6.22,60.58c.39,3.83-1.39,7.55-4.52,9.39-9.71,5.69-26.73,10.46-37.8-4.85-1.79-2.48-1.49-6.09-1.2-9.22l4.87-52.74,32.43-3.15Z"/><path class="cls-49" d="M1046.95,171.93s-13.94,76.98,25.93,74.63c39.87-2.35,32.76-36.44,32.76-36.44,0,0,11.24-3.23,7.51-14.74-3.72-11.51-15.81,4.58-15.81,4.58,0,0,1.49-30.94-13.61-30.35-15.1,.59-23.56,10.78-36.79,2.31Z"/><path class="cls-6" d="M1101.6,189.72c.39-.1-.68,16.28-.69,17.21-.11,12.37-2.5,30.63-14.12,36.61-3.99,2.05-8.45,2.73-12.86,3.1-5.58,.47-11.24,.47-16.71-.77-2.89-.66-5.82-1.72-7.96-3.92-3.85-3.94-5.23-15.61-4.63-21.11,1.36-12.6,18.05-9.18,26.74-10.53,6.68-1.04,13.69-1.23,20.43-1.44,.48-5.59,6.74-19.17,7.22-24.76,0,0,2.59,5.61,2.59,5.61Z"/><path class="cls-50" d="M1059.13,210.45c-1.42-.15-2.53-.73-3.31-1.72-2.52-3.18-.59-9.41-.5-9.68,.12-.38,.51-.59,.86-.46,.35,.13,.54,.55,.42,.94-.02,.06-1.77,5.7,.25,8.24,.92,1.15,2.56,1.51,4.88,1.06,.37-.07,.72,.19,.79,.59,.07,.4-.18,.78-.55,.86-1.05,.21-2,.26-2.84,.17Z"/><path class="cls-50" d="M1067.73,226.95s-.03,0-.05,0c-3.02,.55-5.31-1.41-5.4-1.5-.29-.25-.34-.72-.1-1.04,.24-.32,.66-.37,.96-.11,.03,.03,1.94,1.63,4.34,1.19,0,0,.01,0,.02,0,1.89-.36,3.61-1.87,5.12-4.49,.2-.34,.62-.45,.94-.23,.32,.22,.42,.67,.22,1.02-1.73,2.99-3.76,4.72-6.04,5.16Z"/><path class="cls-50" d="M1052.37,193.72c-.11,1.21-.81,2.13-1.56,2.05-.75-.08-1.26-1.13-1.15-2.35,.11-1.21,.81-2.13,1.56-2.05,.75,.08,1.26,1.13,1.15,2.35Z"/><path class="cls-50" d="M1072.74,195.18c-.11,1.21-.81,2.13-1.56,2.05-.75-.08-1.26-1.13-1.15-2.35,.11-1.21,.81-2.13,1.56-2.05,.75,.08,1.26,1.13,1.15,2.35Z"/></g><polygon class="cls-14" points="1118.05 269.59 1168.87 287.94 1204.55 628.27 1128.6 630.5 1118.05 269.59"/><path class="cls-14" d="M1161.83,287.07s16.52-4.06,33.79,23.04c12.68,19.91,43.73,82.66,59.32,114.59,5.83,11.94,5.89,26.13,.16,38.12-17.9,37.49-56.25,117.65-59.5,123.24-4.26,7.32-21.53-19.79-21.53-19.79l36.3-103-40.79-84.04-7.75-92.17Z"/><rect class="cls-15" x="1180.22" y="553.41" width="6.49" height="48.69" transform="translate(-61.9 1006.07) rotate(-45)"/><polygon class="cls-35" points="1189.9 486.34 1173.35 567 1192.75 513.29 1189.9 486.34"/></g><g><g><polygon class="cls-23" points="346.29 905.22 263.32 539.59 462.65 541.52 555.61 907.25 346.29 905.22"/><path class="cls-23" d="M474.16,906.46l160.63,1.55c8.9,.09,16.19-7.06,16.28-15.97l.05-5.36c.09-8.9-7.06-16.19-15.97-16.28l-160.63-1.55-.36,37.61Z"/><path class="cls-29" d="M263.32,539.59l74.42,327.94,8.55,37.69s5.61-15.74,9.43-37.52c5.69-32.44,7.41-78.24-19.33-105.5,0,0,8.54-105.23-21.29-131.85,0,0,12.16-90.15-51.78-90.77Z"/><polygon class="cls-29" points="337.74 867.53 346.29 905.22 474.16 906.46 474.52 868.85 337.74 867.53"/><rect class="cls-64" x="465.93" y="906.54" width="33.85" height="146.68" transform="translate(956.2 1964.39) rotate(-179.45)"/><rect class="cls-60" x="390.07" y="1038.19" width="188.05" height="15.04" transform="translate(958.04 2096.07) rotate(-179.45)"/><path class="cls-61" d="M547.83,1067.02c-.07,7.27,5.77,13.22,13.04,13.29,7.27,.07,13.22-5.77,13.29-13.04,.07-7.27-5.77-13.22-13.04-13.29-7.27-.07-13.22,5.77-13.29,13.04Z"/><path class="cls-61" d="M446.28,1066.04c-.07,7.27,5.77,13.22,13.04,13.29,7.27,.07,13.22-5.77,13.29-13.04,.07-7.27-5.77-13.22-13.04-13.29-7.27-.07-13.22,5.77-13.29,13.04Z"/><path class="cls-61" d="M393.63,1065.53c-.07,7.27,5.77,13.22,13.04,13.29,7.27,.07,13.22-5.77,13.29-13.04,.07-7.27-5.77-13.22-13.04-13.29-7.27-.07-13.22,5.77-13.29,13.04Z"/><path class="cls-12" d="M500.48,906.71l-.38,39.61s-15.55,3.5-18.97,16.62c-3.91,15.01-15.17,13.3-15.17,13.3l.68-69.85,33.85,.33Z"/></g><g><polygon class="cls-17" points="560.81 1043.53 550.79 1074.91 582.17 1084.93 593.35 1050.8 560.81 1043.53"/><path class="cls-56" d="M687.04,829.53l-1.05,2.68-91.5,235.39-43.15-9.06,47.95-189.77-112.43,1.8-6.83-91.09,177.36,5.33c1.13,.03,2.22,.11,3.32,.27,20.8,2.68,34.12,24.36,26.32,44.46Z"/><polygon class="cls-17" points="624.15 1076.22 629.78 1108.68 657.48 1110.99 656.37 1067.62 624.15 1076.22"/><path class="cls-43" d="M663.57,1079.79l-40.42,5.39-72.87-214-109.51-1.07c-57.51-14.95-56.76-92.78-56.76-92.78l192.75,4.31,15.33,.35c11.39,.24,20.98,8.52,22.94,19.73l1.18,6.73,47.36,271.35Z"/><polygon class="cls-9" points="621.81 840.48 650.07 924.63 640.7 948.75 621.81 840.48"/><path class="cls-21" d="M658.59,1106.53c2.52-.19,5.02,.55,7.07,2.08,5.18,3.87,15.7,10.9,26.47,13.25,11.65,2.54,23.31,3.23,29.39,10.55,2.8,3.38,.5,8.59-3.81,8.55l-86.2-.97c-3.53-.04-6.36-3.03-6.32-6.67l.32-28.47c.03-2.75,2.57-4.72,5.15-4.02,8.48,2.31,18.36,6.41,27.94,5.7Z"/><path class="cls-21" d="M582.87,1081.28c2.47,.53,4.66,1.95,6.19,3.99,3.87,5.18,11.97,14.9,21.64,20.2,10.45,5.73,21.45,9.69,25.2,18.43,1.73,4.04-1.95,8.38-6.08,7.12l-82.4-25.32c-3.38-1.04-5.25-4.7-4.18-8.19l7.09-26.77c.81-2.63,5.07-4.24,7.35-2.84,7.48,4.62,15.8,11.35,25.19,13.37Z"/><path class="cls-28" d="M616.21,808.44c-4.4,4.77-10.69,7.75-17.69,7.75-13.32,0-24.12-10.8-24.12-24.12,0-3.73,.86-7.26,2.36-10.43l15.33,.35c11.39,.24,20.98,8.52,22.94,19.73l1.18,6.73Z"/><path class="cls-28" d="M687.04,829.53l-1.05,2.68c-.56,.03-1.15,.05-1.72,.05-16.29,0-29.48-13.19-29.48-29.48,0-6.65,2.2-12.78,5.92-17.72,20.8,2.68,34.12,24.36,26.32,44.46Z"/><path class="cls-53" d="M451.41,401.33s-34.69-5.65-55.05,29.88c-8.21,14.32-11.3,31.01-9.17,47.38l-.19,54.13s83.8,2.61,115.22-7.14c0,0-5.12-123.96-29.26-121.74-14.32,1.32-21.54-2.51-21.54-2.51Z"/><path class="cls-47" d="M520.07,782.95c-58.32,16.73-112.42,8.03-130.48,4.22-3.41-.72-5.75-3.9-5.37-7.37,4.46-40.57-16.06-174.99-21.97-212.35-.93-5.89,2.05-11.73,7.39-14.39,6.88-3.43,13.55-6.36,20-8.85,44.56-17.25,78.93-13.59,102.02-5.75,12.46,4.23,21.63,9.67,27.35,13.69,4.23,2.98,6.85,8.14,5.69,13.18-19.5,84.64-4.2,184.75,.21,209.88,.6,3.44-1.49,6.78-4.84,7.74Z"/><path class="cls-66" d="M491.67,538.47c-47.44,105.95-102.09,5.77-102.09,5.77,.02,0,.04-.02,.06-.02,44.56-17.25,78.93-13.59,102.02-5.75h0Z"/><g><path class="cls-30" d="M422.19,495.06l-1.07,44.27c-.07,2.8,2.51,7.91,4.7,9.66,6.26,5.01,24.21,5.53,28.75-9.26,.67-2.19,.78-4.51,.36-6.76l-7.13-37.84-25.62-.08Z"/><path class="cls-26" d="M480.55,440.52s16.66,75.91-22.95,81.85c-27.68,4.15-41.04-35.43-41.04-35.43,0,0-13.22-2.31-10-14.9,3.22-12.6,18.6,3.29,18.6,3.29,0,0,4.66-7.06,21.8-10.29,26.58-5.01,19.14-14.21,33.58-24.52Z"/><path class="cls-50" d="M470.86,491.59c1.62-.3,2.84-1.03,3.65-2.16,2.61-3.63-.19-10.06-.31-10.33-.18-.4-.64-.57-1.04-.4-.4,.18-.58,.64-.4,1.04,.03,.06,2.56,5.88,.47,8.78-.95,1.32-2.8,1.86-5.51,1.61-.43-.04-.81,.28-.85,.71-.04,.43,.28,.81,.71,.85,1.23,.11,2.32,.08,3.28-.1Z"/><path class="cls-50" d="M465.95,506.44s.03,0,.05,0c3.47-.68,5.21-3.57,5.28-3.69,.22-.37,.1-.85-.28-1.08-.37-.22-.85-.1-1.07,.28-.02,.04-1.48,2.42-4.25,2.95,0,0-.01,0-.02,0-2.17,.41-4.6-.4-7.22-2.4-.34-.26-.84-.2-1.1,.15-.26,.34-.2,.84,.15,1.1,2.99,2.28,5.84,3.19,8.46,2.69Z"/><path class="cls-50" d="M477.1,473.14c.24,1.28,1.13,2.19,1.98,2.02,.85-.16,1.35-1.33,1.11-2.61-.24-1.28-1.13-2.19-1.98-2.02-.85,.16-1.35,1.33-1.11,2.61Z"/><path class="cls-50" d="M453.8,476.73c.24,1.28,1.13,2.19,1.98,2.02,.85-.16,1.35-1.33,1.11-2.61-.24-1.28-1.13-2.19-1.98-2.03-.85,.16-1.35,1.33-1.11,2.61Z"/></g><path class="cls-54" d="M381.98,652.94s56.54,10.96,72.27-1.73c0,0,41.58-.32,56.72-5.78,1.58-.57-40.98,17.97-54.69,12.89,0,0-47.9,9.85-74.31-5.38Z"/><path class="cls-67" d="M738.17,560.23c-11.69-4.91-32.64,5.06-32.64,5.06,0,0,10.04-13.59,1.23-11.8-8.25,1.68-19.66,27.85-21.07,31.16l-107.44,35.65-51.65-35.95c-31.87-7.38-23.23,29.16-23.23,29.16,1.17,12.41,43.3,35.49,68.7,48.62,4.68,2.42,10.25,2.3,14.82-.3l109.87-65.36,.11,.12s64.61-26.58,41.3-36.37Z"/><path class="cls-47" d="M467.81,583.07s59.26,59.58,72.57,63.93l31.84-38.62-46.41-50.25c-6-6.5-15.07-9.19-23.64-7.03l-34.36,31.96Z"/><path class="cls-20" d="M534.01,641.65l33.67-37.63c1.68-1.88,4.58-2,6.42-.27l1.39,1.31c1.74,1.64,1.88,4.35,.33,6.17l-32.39,37.97c-1.44,1.68-3.89,2.07-5.77,.9l-2.67-1.65c-2.37-1.47-2.84-4.72-.98-6.8Z"/><path class="cls-34" d="M404.18,466.26c8.78-5.43,33.99,4.95,38.85,7.3,.03-.97,.16-1.96,.43-2.94,1.76-6.61,8.22-10.65,14.39-9,4.66,1.24,7.84,5.38,8.36,10.17,.68-.49,1.38-.73,2.08-.66,.33,.03,.62,.12,.88,.25,.06-.78,.19-1.57,.4-2.36,1.76-6.61,8.22-10.65,14.39-9,6.17,1.65,9.75,8.36,7.99,14.97-1.76,6.61-8.22,10.65-14.39,9-4.77-1.27-7.98-5.58-8.38-10.52-.16-.22-.55-.66-1.05-.7-.59-.06-1.21,.48-1.62,.95-.07,.08-.16,.11-.25,.16-.05,.89-.18,1.8-.42,2.7-1.76,6.61-8.22,10.65-14.39,9-4.65-1.24-7.83-5.37-8.36-10.16-2.98-1.48-29.51-13.05-38.04-7.77-2.83,1.75-4.22,5.01-4.14,9.7,0,.46-.35,.83-.81,.84-.08,0-.16,0-.23-.03-.35-.09-.61-.41-.61-.78-.09-5.31,1.56-9.06,4.92-11.13Zm73.8,16.14c5.29,1.41,10.83-2.1,12.36-7.83,1.53-5.73-1.53-11.54-6.82-12.95-5.29-1.41-10.83,2.1-12.36,7.83s1.53,11.54,6.82,12.95Zm-26.1,1.6c5.29,1.41,10.83-2.1,12.36-7.83,1.53-5.73-1.53-11.54-6.82-12.95-5.29-1.41-10.83,2.1-12.36,7.83-1.53,5.73,1.53,11.54,6.82,12.95Z"/><path class="cls-66" d="M418.3,485.12c0,1.38-1.12,2.5-2.5,2.5s-2.5-1.12-2.5-2.5,1.12-2.51,2.5-2.51,2.5,1.12,2.5,2.51Z"/></g><g><rect class="cls-27" x="328.3" y="738.87" width="644.93" height="26.69" transform="translate(1299.98 1505.76) rotate(-179.88)"/><rect class="cls-16" x="119.26" y="737.99" width="209.05" height="26.69" transform="translate(446.01 1503.12) rotate(-179.88)"/><polygon class="cls-65" points="297.38 764.88 303.77 794.96 373.04 1119.81 374.21 1125.29 380.18 1153.16 396.72 1155.56 391.37 1127.6 390.31 1122.1 327.57 795.22 321.73 764.86 297.38 764.88"/><polygon class="cls-65" points="80.69 1142.44 94.03 1142.47 99.19 1120.24 100.23 1115.79 173.29 800.15 181.5 764.59 156.5 764.53 149.36 800.1 86.04 1115.77 85.14 1120.21 80.69 1142.44"/><polygon class="cls-38" points="85.14 1120.21 99.19 1120.24 100.23 1115.79 86.04 1115.77 85.14 1120.21"/><polygon class="cls-24" points="321.73 764.86 297.38 764.88 303.77 794.96 327.57 795.22 321.73 764.86"/><polygon class="cls-24" points="149.36 800.1 173.29 800.15 181.5 764.59 156.5 764.53 149.36 800.1"/><polygon class="cls-38" points="389.11 1115.97 372.13 1115.99 373.33 1120.44 390.15 1120.42 389.11 1115.97"/><polygon class="cls-65" points="927.77 765.87 934.16 795.95 1003.43 1120.79 1004.6 1126.27 1010.57 1154.14 1027.11 1156.54 1021.76 1128.59 1020.7 1123.09 957.96 796.21 952.13 765.85 927.77 765.87"/><polygon class="cls-65" points="711.08 1143.89 724.42 1143.92 729.58 1121.69 730.62 1117.25 803.68 801.6 811.89 766.04 786.89 765.99 779.75 801.55 716.43 1117.22 715.53 1121.66 711.08 1143.89"/><polygon class="cls-24" points="952.13 765.85 927.77 765.87 934.16 795.95 957.96 796.21 952.13 765.85"/><polygon class="cls-24" points="779.75 801.55 803.68 801.6 811.89 766.04 786.89 765.99 779.75 801.55"/><polygon class="cls-38" points="1019.51 1118.16 1002.53 1118.18 1003.73 1122.63 1020.55 1122.61 1019.51 1118.16"/><polygon class="cls-38" points="715.53 1122.4 729.59 1122.43 730.62 1117.98 716.43 1117.95 715.53 1122.4"/></g><g><g><path class="cls-48" d="M858.72,639.58s8.24,23.13,11.85,37.22l3.24,.2s-8.46-35.02-13.68-38.76l-1.41,1.34Z"/><path class="cls-18" d="M853.34,645.43c9.77,3.89,15.76,11.87,13.39,17.83-2.37,5.96-12.21,7.63-21.98,3.74-9.77-3.89-15.76-11.87-13.39-17.83,2.37-5.96,12.21-7.63,21.98-3.74Z"/><path class="cls-48" d="M870.2,611.47s4.23,50.99-.11,65.91l4.24-.44s4.37-61-2.6-66.17l-1.53,.7Z"/><polygon class="cls-48" points="873.24 656.16 881.15 644.62 882.48 647.16 873.51 658.81 873.24 656.16"/><path class="cls-48" d="M873.74,660.93s4.91-4.26,7.62-4.01l-.2,3.24s-6.78,1.78-7.2,2.89c-.42,1.11-.22-2.12-.22-2.12Z"/><path class="cls-18" d="M859.1,620.96c6.63,6.75,8.67,15.49,4.55,19.53-4.11,4.04-12.82,1.85-19.45-4.9-6.63-6.75-8.67-15.49-4.55-19.53,4.11-4.04,12.82-1.85,19.45,4.9Z"/><path class="cls-18" d="M869.98,593.37c5.83,8.57,6.32,18.4,1.09,21.96-5.23,3.56-14.19-.51-20.02-9.08-5.83-8.57-6.32-18.4-1.09-21.96,5.23-3.56,14.19,.51,20.02,9.08Z"/><path class="cls-18" d="M887.42,601.43c10.38-5.48,21.51-4.79,24.85,1.54,3.34,6.33-2.37,15.9-12.75,21.38-10.38,5.48-21.51,4.79-24.85-1.54-3.34-6.33,2.37-15.9,12.75-21.38Z"/><path class="cls-18" d="M888.64,629.87c8.09-4.53,16.88-4.21,19.65,.72,2.76,4.93-1.55,12.6-9.64,17.14-8.09,4.53-16.88,4.21-19.65-.72-2.76-4.93,1.55-12.6,9.64-17.14Z"/><path class="cls-18" d="M893.07,651.8c8.34,.47,14.86,4.98,14.58,10.06-.29,5.08-7.28,8.82-15.62,8.35-8.34-.47-14.86-4.98-14.58-10.06s7.28-8.82,15.62-8.35Z"/><path class="cls-48" d="M870.64,615.71s-9.81-21.41-17.5-25.73c0,0,15.05,7,19.98,23.87l-2.48,1.87Z"/><path class="cls-48" d="M874.43,623.88s18.8-14.27,27.62-14.35c0,0-16.71-1.09-29.16,11.31l1.54,3.04Z"/><path class="cls-48" d="M880.58,649.5s13.64-14.27,20.87-15.57c0,0-13.61,2.19-22.09,14.09l1.23,1.48Z"/><path class="cls-48" d="M876.98,660.84s19.36-3.91,26.02-.85c0,0-12.42-5.98-26.18-1.07l.16,1.91Z"/><path class="cls-48" d="M866.86,663.52s-17.57-9.02-24.82-7.87c0,0,13.58-2.39,25.49,6.07l-.67,1.8Z"/><path class="cls-48" d="M859.92,643.08s-7.32-18.26-13.59-22.06c0,0,12.57,6.81,16.22,20.96l-2.63,1.1Z"/></g><g><path class="cls-57" d="M841.79,739.23h55.39c9.76-7.6,12.38-46.41,13.02-59.95,.12-2.55-1.93-4.67-4.47-4.67h-68.07c-2.21,0-4.13,1.61-4.42,3.8-3.36,25.06,8.56,60.82,8.56,60.82Z"/><path class="cls-23" d="M841.79,739.23h13.48c-9.94-26.68-6.36-53.54-4.14-64.62h-13.48c-2.21,0-4.13,1.61-4.42,3.8-3.36,25.06,8.56,60.82,8.56,60.82Z"/></g></g><g><path class="cls-4" d="M715.76,740.04h-181.44v-14.01h195.45c0,7.74-6.27,14.01-14.01,14.01Z"/><path class="cls-7" d="M409.18,726.03h125.14v14.01h-120.29c-4.37,0-7.91-3.55-7.91-7.91v-3.03c0-1.69,1.37-3.06,3.06-3.06Z"/><path class="cls-51" d="M590.98,570.51h181.95c4.27,0,7.29,4.19,5.94,8.24l-49.09,147.28h-195.45l44.99-146.89c1.57-5.13,6.31-8.63,11.67-8.63Z"/><path class="cls-63" d="M685.63,647.92c0,10.09-8.4,18.75-19.39,19.39-11.77,.68-21.94-7.98-21.94-19.39s10.17-20.08,21.94-19.39c11,.64,19.39,9.3,19.39,19.39Z"/></g><g><path class="cls-68" d="M499.55,712.5c5.22-17.76-22.5-14.02-22.5-14.02,0,0,13.3-4.93,.17-6.39-11.82-1.31-34.15,11.56-36.81,13.45l-85.91,2.48,22.02-62.19c-1.38-34.27-22.15-62.86-22.15-62.86-12.22,4.63-33.06,98.54-39.28,127.86-.43,2.03-.91,6.48-.85,11.37,.13,10.65,9.23,15.35,19.83,14.26l108.06-9.58c7.09,3.06,49.53,12.49,57.42-14.38Z"/><path class="cls-47" d="M357.2,565.6c-11.35,25.03-27.55,62.31-27.59,71.41l46.51,18.49,35.14-62.24c3.41-6.05,3.25-13.48-.43-19.36l-22.14-16.43c-10.7-7.94-25.99-3.99-31.49,8.14Z"/><path class="cls-20" d="M331.08,628.58l49.23,21.91c1.52,.68,2.18,2.47,1.46,3.97l-2.13,4.45c-.68,1.42-2.35,2.06-3.8,1.45l-48.62-20.27c-1.35-.56-2.08-2.02-1.73-3.44l1.51-6.09c.44-1.78,2.39-2.73,4.07-1.99Z"/></g><g><g><polygon class="cls-45" points="784.55 677.69 754.3 739.23 779.31 739.23 784.55 677.69"/><polygon class="cls-29" points="762.79 644.74 776.53 739.23 857.13 739.23 839.2 644.74 762.79 644.74"/><polygon class="cls-23" points="772.98 652.94 783.91 730.78 848.77 730.78 833.12 652.94 772.98 652.94"/><polygon class="cls-42" points="791.69 712.94 835.93 712.94 837.53 718.29 792.96 718.29 791.69 712.94"/></g><path class="cls-10" d="M801.77,694.43l-3.24,12.44h-6.57l10.95-46.6,9.86-.4,21.69,47.01h-7.23l-6.27-12.65-19.19,.21Zm17.44-4.62l-6.74-13.64c-1.65-3.33-2.86-6.46-4.1-9.59h-.18c-.55,3.27-1.17,6.52-1.94,9.68l-3.7,13.79,16.66-.25Z"/></g></g></svg>