<?xml version="1.0" encoding="UTF-8"?><svg id="Layer_1" xmlns="http://www.w3.org/2000/svg" xmlns:xlink="http://www.w3.org/1999/xlink" viewBox="0 0 331 331.9"><defs><style>.cls-1{clip-path:url(#clippath-1);}.cls-2{fill:#0c5bc6;}.cls-3{clip-path:url(#clippath);}.cls-4{fill:none;}</style><clipPath id="clippath"><rect class="cls-4" width="287.68" height="273.33"/></clipPath><clipPath id="clippath-1"><rect class="cls-4" x="43.68" y="58.67" width="287.32" height="273.23"/></clipPath></defs><g class="cls-3"><path class="cls-2" d="M285.63,18.6c-2.3,8.68-6.14,16.26-11.2,22.92C245.52,16.14,207.68,.69,166.24,.51,75.46,.11,.75,74.08,.23,164.91c-.23,40.91,14.4,78.4,38.79,107.38,.69-1.48,1.44-2.97,2.27-4.49,2.74-5.01,6.07-9.83,9.96-14.47-18.72-24.45-29.8-55.08-29.61-88.3C22.1,85.54,86.05,21.93,165.5,21.93c.7,0,1.39,.01,2.08,.02,39.83,.57,43.59,58.4,4.17,64.15-17.88,2.61-35.82,4.17-52.2,5.51-100.55,8.22-96.29,63.06-49.25,83.61,28.62,12.5,71.21,9.76,71.21,9.76,0,0-130.26-24.96,4.62-54.54C313.14,93.81,285.63,18.6,285.63,18.6"/></g><g class="cls-1"><path class="cls-2" d="M291.98,59.44c-.69,1.48-1.44,2.98-2.27,4.49-2.75,5.01-6.07,9.83-9.96,14.47,18.72,24.45,29.8,55.08,29.61,88.31-.45,79.48-64.41,143.09-143.85,143.09-.69,0-1.39,0-2.08-.02-39.83-.56-43.59-58.4-4.17-64.14,17.88-2.61,35.82-4.17,52.2-5.52,100.55-8.22,96.28-63.06,49.24-83.6-28.61-12.5-71.21-9.76-71.21-9.76,0,0,130.26,24.96-4.62,54.54C17.86,237.92,45.37,313.14,45.37,313.14c2.31-8.68,6.15-16.27,11.21-22.92,28.91,25.37,66.73,40.82,108.17,41.01,90.79,.4,165.51-73.57,166.02-164.41,.23-40.91-14.4-78.39-38.79-107.38"/></g></svg>